<svg width="152" height="152" viewBox="0 0 152 152" fill="none" xmlns="http://www.w3.org/2000/svg">
<path d="M98.2743 0.00537109V28.4575H40.0912C39.389 28.4511 38.692 28.5584 38.0405 28.7736C37.3891 28.9887 36.7962 29.3073 36.2961 29.7108C35.8893 30.0403 35.5572 30.4263 35.3154 30.8509C35.8565 23.6436 39.1947 16.7657 44.8443 11.2179C50.4938 5.67016 58.1598 1.7421 66.7266 0.00537109H98.2743Z" fill="#5E6DF3"/>
<path d="M67.7901 71.7632C67.3102 79.0067 64.0068 85.9339 58.364 91.5296C52.7215 97.1252 45.0365 101.095 36.4353 102.857H6.33594V74.4112H62.8488C63.5678 74.4189 64.2815 74.3074 64.9465 74.0837C65.5825 73.8715 66.1598 73.5566 66.6439 73.1579C67.1308 72.7567 67.5198 72.2834 67.7901 71.7632Z" fill="#619B2B"/>
<path d="M102.954 70.0534C102.979 74.4414 101.908 78.7873 99.8066 82.8245C99.3791 83.6372 98.9097 84.438 98.4003 85.2179C98.3857 85.2507 98.3712 85.2626 98.3712 85.2849C98.3664 85.3017 98.357 85.3175 98.3439 85.3311C94.0211 92.0168 87.0191 97.2829 78.5129 100.246C73.5673 101.99 68.2337 102.878 62.8482 102.853H36.4475L36.7514 102.786C45.2809 100.98 52.8863 96.9998 58.4665 91.4216C64.0468 85.8434 67.312 78.9568 67.7896 71.7592V71.7473C68.2943 70.673 68.3039 69.4852 67.8169 68.4057C67.8041 68.3833 67.7896 68.3491 67.775 68.3268C67.5125 67.8077 67.1281 67.3359 66.6434 66.938C66.1469 66.5312 65.5543 66.2112 64.9019 65.9976C64.2495 65.7839 63.5507 65.681 62.8482 65.6951H40.0917C38.9601 65.6951 37.8284 65.6624 36.7095 65.5716C36.6695 65.5716 36.6277 65.5597 36.5731 65.5597C32.3929 65.2889 28.2972 64.4499 24.4543 63.0769C14.8924 59.7094 7.27859 53.4638 3.18788 45.6321C2.6492 44.623 2.17912 43.5905 1.77971 42.539C0.585642 39.391 -0.0143673 36.1124 0.000388913 32.8163C-0.0235898 28.4183 1.06149 24.0637 3.18788 20.0244C7.30233 12.2166 14.9109 5.99185 24.4543 2.62569C27.2398 1.62793 30.1649 0.915035 33.1636 0.503127C33.2746 0.479312 33.3565 0.468884 33.411 0.456976C33.4385 0.451266 33.4665 0.447771 33.4947 0.446552C35.6747 0.148299 37.8814 -0.00106743 40.0917 5.74173e-06H66.7271C58.1601 1.73674 50.4941 5.6648 44.8446 11.2126C39.1951 16.7603 35.857 23.6383 35.3159 30.8456C35.2577 30.9292 35.2071 31.0163 35.1649 31.1061C34.8923 31.6462 34.7563 32.226 34.7646 32.8104C34.7568 33.4223 34.8971 34.0293 35.1776 34.5965C35.2069 34.6596 35.244 34.7199 35.2886 34.7766C35.5264 35.2288 35.8686 35.6392 36.2965 35.9853C36.7947 36.391 37.3872 36.7109 38.0391 36.9261C38.691 37.1415 39.3889 37.2476 40.0917 37.2386H62.8482C68.2222 37.2152 73.5459 38.0873 78.4947 39.8017C88.1167 43.111 95.7708 49.373 99.8157 57.2451C100.35 58.2655 100.816 59.3089 101.211 60.3709C102.38 63.509 102.967 66.7728 102.954 70.0534Z" fill="#619B2B"/>
<g style="mix-blend-mode:multiply" opacity="0.16">
<g style="mix-blend-mode:multiply">
<path d="M67.7889 71.7632C67.309 79.0067 64.0056 85.9339 58.363 91.5296C52.7205 97.1252 45.0353 101.095 36.4343 102.857H28.0435C35.0847 100.146 41.3007 96.1878 46.241 91.2687C51.1815 86.3495 54.7223 80.5928 56.6072 74.4156H62.8441C63.5631 74.4234 64.2767 74.3119 64.9416 74.0882C65.5779 73.8759 66.1552 73.5611 66.6393 73.1623C67.128 72.7602 67.5182 72.2852 67.7889 71.7632Z" fill="black"/>
</g>
</g>
<g style="mix-blend-mode:multiply" opacity="0.16">
<g style="mix-blend-mode:multiply">
<path d="M74.2897 0.00537109C66.5192 4.73573 50.7456 15.6537 46.7703 28.4575H40.0912C39.389 28.4511 38.692 28.5584 38.0405 28.7736C37.3891 28.9887 36.7962 29.3073 36.2961 29.7108C35.8893 30.0403 35.5572 30.4263 35.3154 30.8509C35.8565 23.6436 39.1947 16.7657 44.8443 11.2179C50.4938 5.67016 58.1598 1.7421 66.7266 0.00537109H74.2897Z" fill="black"/>
</g>
</g>
<g style="mix-blend-mode:multiply" opacity="0.25">
<g style="mix-blend-mode:multiply">
<path d="M98.2755 8.51807V28.4636H49.6841C53.7267 28.1361 57.7839 27.9114 61.8283 27.7521C65.8727 27.5928 69.9299 27.4544 73.9725 27.4023C78.0297 27.3011 82.0741 27.313 86.1313 27.2788C89.77 27.313 93.3759 27.313 97.0074 27.38C97.0474 26.082 97.0765 24.7826 97.1438 23.4742C97.213 21.8131 97.2821 20.1535 97.4076 18.4938C97.6078 15.1686 97.8752 11.8374 98.2755 8.51807Z" fill="black"/>
</g>
</g>
<g style="mix-blend-mode:screen" opacity="0.7">
<g style="mix-blend-mode:screen">
<path d="M102.954 70.0535C102.979 74.4414 101.908 78.7872 99.8064 82.8246C99.3789 83.6373 98.9095 84.4381 98.4001 85.218C98.5383 84.9129 98.9932 83.9408 99.6736 82.4508C100.728 79.9171 101.417 77.2918 101.729 74.6276C101.926 72.863 101.968 71.089 101.855 69.3195C101.717 67.3628 101.384 65.4184 100.862 63.5057C100.591 62.5165 100.255 61.54 99.8537 60.5809C99.3843 59.5881 98.9149 58.5817 98.4455 57.577C97.3923 55.6013 96.0975 53.7178 94.5812 51.9552C93.1041 50.169 91.3961 48.5182 89.487 47.0312C87.648 45.5881 85.6526 44.2848 83.525 43.1373C81.507 42.0652 79.3889 41.1251 77.19 40.3258C75.2095 39.6284 73.1656 39.0582 71.077 38.6198C67.8976 37.9749 64.647 37.5929 61.3743 37.4798C58.9728 37.331 57.6064 37.2431 57.6064 37.2431H62.8371C68.2111 37.2196 73.5347 38.0917 78.4836 39.8063C88.1056 43.1156 95.7596 49.3776 99.8046 57.2495C100.339 58.2699 100.805 59.3134 101.2 60.3755C102.372 63.5117 102.963 66.7738 102.954 70.0535Z" fill="white"/>
</g>
</g>
<g style="mix-blend-mode:multiply" opacity="0.25">
<g style="mix-blend-mode:multiply">
<path d="M32.0871 102.853H6.33594V81.3442C6.65251 83.1393 6.84532 84.9166 7.05273 86.7191C7.21829 88.5142 7.37112 90.3093 7.46754 92.0925C7.60581 93.8876 7.63314 95.6842 7.71501 97.4793L7.77141 101.678C9.43976 101.701 11.1099 101.701 12.7801 101.735C14.9196 101.803 17.0592 101.826 19.2115 101.939C23.5034 102.108 27.7952 102.367 32.0871 102.853Z" fill="black"/>
</g>
</g>
<g style="mix-blend-mode:screen" opacity="0.7">
<g style="mix-blend-mode:screen">
<path d="M36.5731 65.5595C32.3929 65.2888 28.2972 64.4496 24.4543 63.0768C14.8924 59.7093 7.27859 53.4636 3.18788 45.6319C2.6492 44.6229 2.17912 43.5903 1.77971 42.5389C0.585642 39.3909 -0.0143673 36.1122 0.000388913 32.8162C-0.0235898 28.4182 1.06149 24.0635 3.18788 20.0242C7.30233 12.2164 14.9109 5.99164 24.4543 2.62548C27.2398 1.62773 30.1649 0.914837 33.1636 0.50293C31.6594 0.798875 30.1757 1.16059 28.7189 1.58653C18.8363 4.47424 10.6599 10.3205 5.83868 17.9463C2.65038 22.9539 1.14957 28.5657 1.49044 34.2049C1.59736 37.0385 2.19706 39.8452 3.27155 42.5403C3.58812 43.228 3.89199 43.9172 4.19582 44.5944L4.41598 45.102L4.47232 45.227C4.48504 45.2482 4.49425 45.2708 4.49965 45.294L4.63789 45.5426L5.16186 46.5027C5.8588 47.7454 6.65626 48.9488 7.54887 50.1048C9.24109 52.3056 11.2373 54.3399 13.4982 56.1673C15.5502 57.803 17.7967 59.2669 20.2043 60.5374C22.2596 61.6044 24.415 62.5366 26.6503 63.3253C28.3945 63.9322 30.1939 64.4268 32.032 64.8049C33.5291 65.1188 35.0448 65.3707 36.5731 65.5595Z" fill="white"/>
</g>
</g>
<g style="mix-blend-mode:screen" opacity="0.7">
<g style="mix-blend-mode:screen">
<path d="M66.7272 0.00537109C58.1604 1.7421 50.4944 5.67016 44.8449 11.2179C39.1953 16.7657 35.8571 23.6436 35.316 30.8509C35.2578 30.9346 35.2072 31.0217 35.165 31.1114L35.276 30.8286C35.2342 29.9355 35.2342 29.0335 35.2342 28.13C35.316 27.228 35.4398 26.3245 35.5507 25.4091C35.7327 24.516 35.9783 23.6229 36.1857 22.7299C36.4622 21.8368 36.8352 20.9794 37.1518 20.0878C37.5156 19.2186 37.9668 18.382 38.4071 17.5247C38.8765 16.6896 39.4296 15.8874 39.9263 15.0627C40.5049 14.2619 41.1398 13.5058 41.7457 12.7154C42.4079 11.9712 43.0974 11.2359 43.7888 10.5125C44.5329 9.81289 45.3207 9.14754 46.0794 8.4688C46.9072 7.83769 47.7168 7.20509 48.5773 6.59482L51.2682 4.91286C52.207 4.40529 53.1585 3.93045 54.1246 3.44521C55.1325 3.03886 56.1131 2.59829 57.1192 2.20235L60.2394 1.20953C61.331 0.949047 62.3917 0.690053 63.4688 0.465294C64.5458 0.286677 65.6374 0.140822 66.7272 0.00537109Z" fill="white"/>
</g>
</g>
<g style="mix-blend-mode:screen" opacity="0.7">
<g style="mix-blend-mode:screen">
<path d="M68.0393 71.7476C68.0521 72.6734 68.0521 73.5769 68.0248 74.4909C67.9556 75.4063 67.8174 76.3098 67.6936 77.2237C67.5008 78.1268 67.2801 79.0303 67.0314 79.9342C66.7549 80.8273 66.3964 81.707 66.0781 82.5867C65.7142 83.4678 65.2375 84.3029 64.8045 85.1617C64.3369 86.0086 63.7984 86.8214 63.2726 87.646C62.7068 88.4468 62.0737 89.2148 61.466 90.0052C60.8037 90.7613 60.1124 91.4937 59.4228 92.229C58.6787 92.93 57.8909 93.6073 57.1323 94.295C56.3045 94.9395 55.4949 95.5721 54.6343 96.1928L51.9417 97.8867C51.0029 98.3947 50.0508 98.8908 49.0853 99.3751L46.0906 100.651L42.9577 101.678L39.741 102.446C38.9132 102.581 38.1036 102.717 37.2849 102.83L37.4669 102.852L36.5135 102.943C36.5008 102.955 36.4717 102.955 36.4589 102.955L36.4444 102.852L36.4316 102.751L36.7482 102.785C45.2777 100.979 52.8832 96.9986 58.4635 91.4203C64.0437 85.8421 67.3089 78.9557 67.7864 71.758V71.7461C68.0542 71.2088 68.1856 70.6325 68.1721 70.0522C68.2722 70.6188 68.2269 71.1961 68.0393 71.7476Z" fill="white"/>
</g>
</g>
<path d="M109.355 124.773V61.7729H131.495C134.855 61.7729 137.885 62.5979 140.585 64.2479C143.315 65.8979 145.475 68.1329 147.065 70.9529C148.685 73.7429 149.495 76.8629 149.495 80.3129C149.495 83.3429 148.895 86.1029 147.695 88.5929C146.495 91.0829 144.845 93.1679 142.745 94.8479C140.675 96.4979 138.32 97.6379 135.68 98.2679L150.98 124.773H142.25L127.22 98.8979H116.915V124.773H109.355ZM116.915 91.3379H130.73C132.77 91.3379 134.645 90.8429 136.355 89.8529C138.065 88.8329 139.415 87.4679 140.405 85.7579C141.425 84.0179 141.935 82.0679 141.935 79.9079C141.935 77.7179 141.425 75.7679 140.405 74.0579C139.415 72.3179 138.065 70.9529 136.355 69.9629C134.645 68.9429 132.77 68.4329 130.73 68.4329H116.915V91.3379Z" fill="#5E6DF3"/>
<path d="M109.355 124.773H108.355V125.773H109.355V124.773ZM109.355 61.7729V60.7729H108.355V61.7729H109.355ZM140.585 64.2479L140.063 65.1012L140.067 65.1038L140.585 64.2479ZM147.065 70.9529L146.193 71.4441L146.2 71.4551L147.065 70.9529ZM142.745 94.8479L143.368 95.6299L143.369 95.6288L142.745 94.8479ZM135.68 98.2679L135.447 97.2953L134.143 97.6065L134.814 98.7679L135.68 98.2679ZM150.98 124.773V125.773H152.711L151.846 124.273L150.98 124.773ZM142.25 124.773L141.385 125.275L141.674 125.773H142.25V124.773ZM127.22 98.8979L128.084 98.3957L127.795 97.8979H127.22V98.8979ZM116.915 98.8979V97.8979H115.915V98.8979H116.915ZM116.915 124.773V125.773H117.915V124.773H116.915ZM116.915 91.3379H115.915V92.3379H116.915V91.3379ZM136.355 89.8529L136.856 90.7184L136.867 90.7118L136.355 89.8529ZM140.405 85.7579L139.542 85.2522L139.539 85.2569L140.405 85.7579ZM140.405 74.0579L139.535 74.5525L139.541 74.5614L139.546 74.5702L140.405 74.0579ZM136.355 69.9629L135.842 70.8218L135.854 70.8284L136.355 69.9629ZM116.915 68.4329V67.4329H115.915V68.4329H116.915ZM110.355 124.773V61.7729H108.355V124.773H110.355ZM109.355 62.7729H131.495V60.7729H109.355V62.7729ZM131.495 62.7729C134.682 62.7729 137.53 63.5532 140.063 65.1012L141.106 63.3947C138.239 61.6427 135.027 60.7729 131.495 60.7729V62.7729ZM140.067 65.1038C142.648 66.6633 144.687 68.7717 146.194 71.4441L147.936 70.4618C146.262 67.4941 143.982 65.1326 141.102 63.3921L140.067 65.1038ZM146.2 71.4551C147.725 74.082 148.495 77.0266 148.495 80.3129H150.495C150.495 76.6992 149.644 73.4039 147.929 70.4508L146.2 71.4551ZM148.495 80.3129C148.495 83.2073 147.922 85.8168 146.794 88.1588L148.595 89.0271C149.867 86.3891 150.495 83.4786 150.495 80.3129H148.495ZM146.794 88.1588C145.657 90.5179 144.1 92.4832 142.12 94.0671L143.369 95.6288C145.589 93.8527 147.332 91.648 148.595 89.0271L146.794 88.1588ZM142.121 94.066C140.169 95.6221 137.948 96.6985 135.447 97.2953L135.912 99.2406C138.691 98.5774 141.18 97.3738 143.368 95.6299L142.121 94.066ZM134.814 98.7679L150.114 125.273L151.846 124.273L136.546 97.768L134.814 98.7679ZM150.98 123.773H142.25V125.773H150.98V123.773ZM143.114 124.271L128.084 98.3957L126.355 99.4002L141.385 125.275L143.114 124.271ZM127.22 97.8979H116.915V99.8979H127.22V97.8979ZM115.915 98.8979V124.773H117.915V98.8979H115.915ZM116.915 123.773H109.355V125.773H116.915V123.773ZM116.915 92.3379H130.73V90.3379H116.915V92.3379ZM130.73 92.3379C132.94 92.3379 134.988 91.7995 136.856 90.7184L135.854 88.9875C134.301 89.8864 132.6 90.3379 130.73 90.3379V92.3379ZM136.867 90.7118C138.722 89.6052 140.194 88.1176 141.27 86.259L139.539 85.2569C138.635 86.8183 137.407 88.0607 135.842 88.9941L136.867 90.7118ZM141.267 86.2637C142.384 84.3594 142.935 82.2327 142.935 79.9079H140.935C140.935 81.9032 140.466 83.6765 139.542 85.2522L141.267 86.2637ZM142.935 79.9079C142.935 77.5561 142.385 75.4258 141.263 73.5457L139.546 74.5702C140.464 76.1101 140.935 77.8798 140.935 79.9079H142.935ZM141.274 73.5634C140.197 71.6715 138.721 70.1776 136.856 69.0975L135.854 70.8284C137.408 71.7283 138.632 72.9644 139.535 74.5525L141.274 73.5634ZM136.867 69.1041C134.998 67.9894 132.945 67.4329 130.73 67.4329V69.4329C132.594 69.4329 134.291 69.8965 135.842 70.8218L136.867 69.1041ZM130.73 67.4329H116.915V69.4329H130.73V67.4329ZM115.915 68.4329V91.3379H117.915V68.4329H115.915Z" fill="#5E6DF3"/>
</svg>
