<svg width="326" height="195" viewBox="0 0 326 195" fill="none" xmlns="http://www.w3.org/2000/svg">
<path d="M24.5391 127.984C24.5391 130.016 24.0469 131.781 23.0625 133.281C22.0781 134.781 20.6406 135.938 18.75 136.75C16.875 137.562 14.5938 137.969 11.9062 137.969C10.7188 137.969 9.55469 137.891 8.41406 137.734C7.28906 137.578 6.20312 137.352 5.15625 137.055C4.125 136.742 3.14062 136.359 2.20312 135.906V129.156C3.82812 129.875 5.51562 130.523 7.26562 131.102C9.01562 131.68 10.75 131.969 12.4688 131.969C13.6562 131.969 14.6094 131.812 15.3281 131.5C16.0625 131.188 16.5938 130.758 16.9219 130.211C17.25 129.664 17.4141 129.039 17.4141 128.336C17.4141 127.477 17.125 126.742 16.5469 126.133C15.9688 125.523 15.1719 124.953 14.1562 124.422C13.1562 123.891 12.0234 123.32 10.7578 122.711C9.96094 122.336 9.09375 121.883 8.15625 121.352C7.21875 120.805 6.32812 120.141 5.48438 119.359C4.64062 118.578 3.94531 117.633 3.39844 116.523C2.86719 115.398 2.60156 114.055 2.60156 112.492C2.60156 110.445 3.07031 108.695 4.00781 107.242C4.94531 105.789 6.28125 104.68 8.01562 103.914C9.76562 103.133 11.8281 102.742 14.2031 102.742C15.9844 102.742 17.6797 102.953 19.2891 103.375C20.9141 103.781 22.6094 104.375 24.375 105.156L22.0312 110.805C20.4531 110.164 19.0391 109.672 17.7891 109.328C16.5391 108.969 15.2656 108.789 13.9688 108.789C13.0625 108.789 12.2891 108.938 11.6484 109.234C11.0078 109.516 10.5234 109.922 10.1953 110.453C9.86719 110.969 9.70312 111.57 9.70312 112.258C9.70312 113.07 9.9375 113.758 10.4062 114.32C10.8906 114.867 11.6094 115.398 12.5625 115.914C13.5312 116.43 14.7344 117.031 16.1719 117.719C17.9219 118.547 19.4141 119.414 20.6484 120.32C21.8984 121.211 22.8594 122.266 23.5312 123.484C24.2031 124.688 24.5391 126.188 24.5391 127.984ZM37.3359 101.031V108.461C37.3359 109.758 37.2891 110.992 37.1953 112.164C37.1172 113.336 37.0547 114.164 37.0078 114.648H37.3828C37.9453 113.742 38.6094 113.008 39.375 112.445C40.1562 111.883 41.0156 111.469 41.9531 111.203C42.8906 110.938 43.8984 110.805 44.9766 110.805C46.8672 110.805 48.5156 111.141 49.9219 111.812C51.3281 112.469 52.4219 113.508 53.2031 114.93C53.9844 116.336 54.375 118.164 54.375 120.414V137.5H47.2266V122.195C47.2266 120.32 46.8828 118.906 46.1953 117.953C45.5078 117 44.4453 116.523 43.0078 116.523C41.5703 116.523 40.4375 116.859 39.6094 117.531C38.7812 118.188 38.1953 119.164 37.8516 120.461C37.5078 121.742 37.3359 123.312 37.3359 125.172V137.5H30.1875V101.031H37.3359ZM85.5469 124.352C85.5469 126.539 85.25 128.477 84.6562 130.164C84.0781 131.852 83.2266 133.281 82.1016 134.453C80.9922 135.609 79.6484 136.484 78.0703 137.078C76.5078 137.672 74.7422 137.969 72.7734 137.969C70.9297 137.969 69.2344 137.672 67.6875 137.078C66.1562 136.484 64.8203 135.609 63.6797 134.453C62.5547 133.281 61.6797 131.852 61.0547 130.164C60.4453 128.477 60.1406 126.539 60.1406 124.352C60.1406 121.445 60.6562 118.984 61.6875 116.969C62.7188 114.953 64.1875 113.422 66.0938 112.375C68 111.328 70.2734 110.805 72.9141 110.805C75.3672 110.805 77.5391 111.328 79.4297 112.375C81.3359 113.422 82.8281 114.953 83.9062 116.969C85 118.984 85.5469 121.445 85.5469 124.352ZM67.4297 124.352C67.4297 126.07 67.6172 127.516 67.9922 128.688C68.3672 129.859 68.9531 130.742 69.75 131.336C70.5469 131.93 71.5859 132.227 72.8672 132.227C74.1328 132.227 75.1562 131.93 75.9375 131.336C76.7344 130.742 77.3125 129.859 77.6719 128.688C78.0469 127.516 78.2344 126.07 78.2344 124.352C78.2344 122.617 78.0469 121.18 77.6719 120.039C77.3125 118.883 76.7344 118.016 75.9375 117.438C75.1406 116.859 74.1016 116.57 72.8203 116.57C70.9297 116.57 69.5547 117.219 68.6953 118.516C67.8516 119.812 67.4297 121.758 67.4297 124.352ZM106.031 110.805C108.984 110.805 111.367 111.953 113.18 114.25C115.008 116.547 115.922 119.914 115.922 124.352C115.922 127.32 115.492 129.82 114.633 131.852C113.773 133.867 112.586 135.391 111.07 136.422C109.555 137.453 107.812 137.969 105.844 137.969C104.578 137.969 103.492 137.812 102.586 137.5C101.68 137.172 100.906 136.758 100.266 136.258C99.625 135.742 99.0703 135.195 98.6016 134.617H98.2266C98.3516 135.242 98.4453 135.883 98.5078 136.539C98.5703 137.195 98.6016 137.836 98.6016 138.461V149.031H91.4531V111.297H97.2656L98.2734 114.695H98.6016C99.0703 113.992 99.6406 113.344 100.312 112.75C100.984 112.156 101.789 111.688 102.727 111.344C103.68 110.984 104.781 110.805 106.031 110.805ZM103.734 116.523C102.484 116.523 101.492 116.781 100.758 117.297C100.023 117.812 99.4844 118.586 99.1406 119.617C98.8125 120.648 98.6328 121.953 98.6016 123.531V124.305C98.6016 125.992 98.7578 127.422 99.0703 128.594C99.3984 129.766 99.9375 130.656 100.688 131.266C101.453 131.875 102.5 132.18 103.828 132.18C104.922 132.18 105.82 131.875 106.523 131.266C107.227 130.656 107.75 129.766 108.094 128.594C108.453 127.406 108.633 125.961 108.633 124.258C108.633 121.695 108.234 119.766 107.438 118.469C106.641 117.172 105.406 116.523 103.734 116.523ZM149.367 137.5L141.117 110.617H140.906C140.938 111.258 140.984 112.227 141.047 113.523C141.125 114.805 141.195 116.172 141.258 117.625C141.32 119.078 141.352 120.391 141.352 121.562V137.5H134.859V103.234H144.75L152.859 129.438H153L161.602 103.234H171.492V137.5H164.719V121.281C164.719 120.203 164.734 118.961 164.766 117.555C164.812 116.148 164.867 114.812 164.93 113.547C164.992 112.266 165.039 111.305 165.07 110.664H164.859L156.023 137.5H149.367ZM203.391 124.352C203.391 126.539 203.094 128.477 202.5 130.164C201.922 131.852 201.07 133.281 199.945 134.453C198.836 135.609 197.492 136.484 195.914 137.078C194.352 137.672 192.586 137.969 190.617 137.969C188.773 137.969 187.078 137.672 185.531 137.078C184 136.484 182.664 135.609 181.523 134.453C180.398 133.281 179.523 131.852 178.898 130.164C178.289 128.477 177.984 126.539 177.984 124.352C177.984 121.445 178.5 118.984 179.531 116.969C180.562 114.953 182.031 113.422 183.938 112.375C185.844 111.328 188.117 110.805 190.758 110.805C193.211 110.805 195.383 111.328 197.273 112.375C199.18 113.422 200.672 114.953 201.75 116.969C202.844 118.984 203.391 121.445 203.391 124.352ZM185.273 124.352C185.273 126.07 185.461 127.516 185.836 128.688C186.211 129.859 186.797 130.742 187.594 131.336C188.391 131.93 189.43 132.227 190.711 132.227C191.977 132.227 193 131.93 193.781 131.336C194.578 130.742 195.156 129.859 195.516 128.688C195.891 127.516 196.078 126.07 196.078 124.352C196.078 122.617 195.891 121.18 195.516 120.039C195.156 118.883 194.578 118.016 193.781 117.438C192.984 116.859 191.945 116.57 190.664 116.57C188.773 116.57 187.398 117.219 186.539 118.516C185.695 119.812 185.273 121.758 185.273 124.352ZM223.922 110.805C224.281 110.805 224.695 110.828 225.164 110.875C225.648 110.906 226.039 110.953 226.336 111.016L225.797 117.719C225.562 117.641 225.227 117.586 224.789 117.555C224.367 117.508 224 117.484 223.688 117.484C222.766 117.484 221.867 117.602 220.992 117.836C220.133 118.07 219.359 118.453 218.672 118.984C217.984 119.5 217.438 120.188 217.031 121.047C216.641 121.891 216.445 122.93 216.445 124.164V137.5H209.297V111.297H214.711L215.766 115.703H216.117C216.633 114.812 217.273 114 218.039 113.266C218.82 112.516 219.703 111.922 220.688 111.484C221.688 111.031 222.766 110.805 223.922 110.805ZM241.898 110.805C244.32 110.805 246.406 111.273 248.156 112.211C249.906 113.133 251.258 114.477 252.211 116.242C253.164 118.008 253.641 120.164 253.641 122.711V126.18H236.742C236.82 128.195 237.422 129.781 238.547 130.938C239.688 132.078 241.266 132.648 243.281 132.648C244.953 132.648 246.484 132.477 247.875 132.133C249.266 131.789 250.695 131.273 252.164 130.586V136.117C250.867 136.758 249.508 137.227 248.086 137.523C246.68 137.82 244.969 137.969 242.953 137.969C240.328 137.969 238 137.484 235.969 136.516C233.953 135.547 232.367 134.07 231.211 132.086C230.07 130.102 229.5 127.602 229.5 124.586C229.5 121.523 230.016 118.977 231.047 116.945C232.094 114.898 233.547 113.367 235.406 112.352C237.266 111.32 239.43 110.805 241.898 110.805ZM241.945 115.891C240.555 115.891 239.398 116.336 238.477 117.227C237.57 118.117 237.047 119.516 236.906 121.422H246.938C246.922 120.359 246.727 119.414 246.352 118.586C245.992 117.758 245.445 117.102 244.711 116.617C243.992 116.133 243.07 115.891 241.945 115.891Z" fill="#FA8100"/>
<g clip-path="url(#clip0_1137_30796)">
<path d="M290.792 110.375H296.208V102.25H304.333V96.8335H296.208V88.7085H290.792V96.8335H282.667V102.25H290.792V110.375ZM279.958 134.75C276.979 134.75 274.569 137.188 274.569 140.167C274.569 143.146 276.979 145.583 279.958 145.583C282.938 145.583 285.375 143.146 285.375 140.167C285.375 137.188 282.938 134.75 279.958 134.75ZM307.042 134.75C304.063 134.75 301.652 137.188 301.652 140.167C301.652 143.146 304.063 145.583 307.042 145.583C310.021 145.583 312.458 143.146 312.458 140.167C312.458 137.188 310.021 134.75 307.042 134.75ZM280.419 125.948L280.5 125.623L282.938 121.208H303.115C305.146 121.208 306.933 120.098 307.854 118.419L318.308 99.4335L313.596 96.8335H313.569L310.59 102.25L303.115 115.792H284.102L283.75 115.061L277.683 102.25L275.111 96.8335L272.565 91.4168H263.708V96.8335H269.125L278.875 117.39L275.219 124.025C274.786 124.783 274.542 125.677 274.542 126.625C274.542 129.604 276.979 132.042 279.958 132.042H312.458V126.625H281.096C280.744 126.625 280.419 126.327 280.419 125.948Z" fill="#FA8100"/>
</g>
<path d="M47.8359 189H45.8438V171.867H55.3828V173.625H47.8359V179.906H54.9258V181.652H47.8359V189ZM59.8945 176.156V189H57.9492V176.156H59.8945ZM58.9453 171.352C59.2656 171.352 59.5391 171.457 59.7656 171.668C60 171.871 60.1172 172.191 60.1172 172.629C60.1172 173.059 60 173.379 59.7656 173.59C59.5391 173.801 59.2656 173.906 58.9453 173.906C58.6094 173.906 58.3281 173.801 58.1016 173.59C57.8828 173.379 57.7734 173.059 57.7734 172.629C57.7734 172.191 57.8828 171.871 58.1016 171.668C58.3281 171.457 58.6094 171.352 58.9453 171.352ZM70.1016 175.922C71.625 175.922 72.7773 176.297 73.5586 177.047C74.3398 177.789 74.7305 178.984 74.7305 180.633V189H72.8086V180.762C72.8086 179.691 72.5625 178.891 72.0703 178.359C71.5859 177.828 70.8398 177.562 69.832 177.562C68.4102 177.562 67.4102 177.965 66.832 178.77C66.2539 179.574 65.9648 180.742 65.9648 182.273V189H64.0195V176.156H65.5898L65.8828 178.008H65.9883C66.2617 177.555 66.6094 177.176 67.0312 176.871C67.4531 176.559 67.9258 176.324 68.4492 176.168C68.9727 176.004 69.5234 175.922 70.1016 175.922ZM83.3086 189.234C81.6836 189.234 80.3945 188.68 79.4414 187.57C78.4961 186.461 78.0234 184.812 78.0234 182.625C78.0234 180.414 78.5078 178.746 79.4766 177.621C80.4453 176.488 81.7344 175.922 83.3438 175.922C84.0234 175.922 84.6172 176.012 85.125 176.191C85.6328 176.371 86.0703 176.613 86.4375 176.918C86.8047 177.215 87.1133 177.555 87.3633 177.938H87.5039C87.4727 177.695 87.4414 177.363 87.4102 176.941C87.3789 176.52 87.3633 176.176 87.3633 175.91V170.766H89.3086V189H87.7383L87.4453 187.172H87.3633C87.1211 187.555 86.8125 187.902 86.4375 188.215C86.0703 188.527 85.6289 188.777 85.1133 188.965C84.6055 189.145 84.0039 189.234 83.3086 189.234ZM83.6133 187.617C84.9883 187.617 85.9609 187.227 86.5312 186.445C87.1016 185.664 87.3867 184.504 87.3867 182.965V182.613C87.3867 180.98 87.1133 179.727 86.5664 178.852C86.0273 177.977 85.043 177.539 83.6133 177.539C82.418 177.539 81.5234 178 80.9297 178.922C80.3359 179.836 80.0391 181.086 80.0391 182.672C80.0391 184.25 80.332 185.469 80.918 186.328C81.5117 187.188 82.4102 187.617 83.6133 187.617ZM99.9609 189V171.867H101.953V189H99.9609ZM110.52 187.641C110.84 187.641 111.168 187.613 111.504 187.559C111.84 187.504 112.113 187.438 112.324 187.359V188.871C112.098 188.973 111.781 189.059 111.375 189.129C110.977 189.199 110.586 189.234 110.203 189.234C109.523 189.234 108.906 189.117 108.352 188.883C107.797 188.641 107.352 188.234 107.016 187.664C106.688 187.094 106.523 186.305 106.523 185.297V177.68H104.695V176.73L106.535 175.969L107.309 173.18H108.48V176.156H112.242V177.68H108.48V185.238C108.48 186.043 108.664 186.645 109.031 187.043C109.406 187.441 109.902 187.641 110.52 187.641ZM117.152 186.211L117.305 186.48C117.164 187.051 116.984 187.66 116.766 188.309C116.555 188.957 116.32 189.605 116.062 190.254C115.812 190.91 115.559 191.523 115.301 192.094H113.848C114.012 191.469 114.172 190.809 114.328 190.113C114.484 189.426 114.625 188.746 114.75 188.074C114.883 187.395 114.988 186.773 115.066 186.211H117.152ZM127.664 189V171.867H129.656V187.219H137.262V189H127.664ZM150.984 182.555C150.984 183.609 150.848 184.551 150.574 185.379C150.301 186.207 149.906 186.906 149.391 187.477C148.875 188.047 148.25 188.484 147.516 188.789C146.789 189.086 145.965 189.234 145.043 189.234C144.184 189.234 143.395 189.086 142.676 188.789C141.965 188.484 141.348 188.047 140.824 187.477C140.309 186.906 139.906 186.207 139.617 185.379C139.336 184.551 139.195 183.609 139.195 182.555C139.195 181.148 139.434 179.953 139.91 178.969C140.387 177.977 141.066 177.223 141.949 176.707C142.84 176.184 143.898 175.922 145.125 175.922C146.297 175.922 147.32 176.184 148.195 176.707C149.078 177.23 149.762 177.988 150.246 178.98C150.738 179.965 150.984 181.156 150.984 182.555ZM141.211 182.555C141.211 183.586 141.348 184.48 141.621 185.238C141.895 185.996 142.316 186.582 142.887 186.996C143.457 187.41 144.191 187.617 145.09 187.617C145.98 187.617 146.711 187.41 147.281 186.996C147.859 186.582 148.285 185.996 148.559 185.238C148.832 184.48 148.969 183.586 148.969 182.555C148.969 181.531 148.832 180.648 148.559 179.906C148.285 179.156 147.863 178.578 147.293 178.172C146.723 177.766 145.984 177.562 145.078 177.562C143.742 177.562 142.762 178.004 142.137 178.887C141.52 179.77 141.211 180.992 141.211 182.555ZM157.172 189L152.297 176.156H154.383L157.207 183.926C157.402 184.457 157.602 185.043 157.805 185.684C158.008 186.324 158.148 186.84 158.227 187.23H158.309C158.402 186.84 158.559 186.324 158.777 185.684C158.996 185.035 159.195 184.449 159.375 183.926L162.199 176.156H164.285L159.398 189H157.172ZM171.293 175.922C172.387 175.922 173.324 176.164 174.105 176.648C174.887 177.133 175.484 177.812 175.898 178.688C176.312 179.555 176.52 180.57 176.52 181.734V182.941H167.648C167.672 184.449 168.047 185.598 168.773 186.387C169.5 187.176 170.523 187.57 171.844 187.57C172.656 187.57 173.375 187.496 174 187.348C174.625 187.199 175.273 186.98 175.945 186.691V188.402C175.297 188.691 174.652 188.902 174.012 189.035C173.379 189.168 172.629 189.234 171.762 189.234C170.527 189.234 169.449 188.984 168.527 188.484C167.613 187.977 166.902 187.234 166.395 186.258C165.887 185.281 165.633 184.086 165.633 182.672C165.633 181.289 165.863 180.094 166.324 179.086C166.793 178.07 167.449 177.289 168.293 176.742C169.145 176.195 170.145 175.922 171.293 175.922ZM171.27 177.516C170.23 177.516 169.402 177.855 168.785 178.535C168.168 179.215 167.801 180.164 167.684 181.383H174.48C174.473 180.617 174.352 179.945 174.117 179.367C173.891 178.781 173.543 178.328 173.074 178.008C172.605 177.68 172.004 177.516 171.27 177.516ZM186.352 189V171.867H188.344V189H186.352ZM196.91 187.641C197.23 187.641 197.559 187.613 197.895 187.559C198.23 187.504 198.504 187.438 198.715 187.359V188.871C198.488 188.973 198.172 189.059 197.766 189.129C197.367 189.199 196.977 189.234 196.594 189.234C195.914 189.234 195.297 189.117 194.742 188.883C194.188 188.641 193.742 188.234 193.406 187.664C193.078 187.094 192.914 186.305 192.914 185.297V177.68H191.086V176.73L192.926 175.969L193.699 173.18H194.871V176.156H198.633V177.68H194.871V185.238C194.871 186.043 195.055 186.645 195.422 187.043C195.797 187.441 196.293 187.641 196.91 187.641ZM203.543 186.211L203.695 186.48C203.555 187.051 203.375 187.66 203.156 188.309C202.945 188.957 202.711 189.605 202.453 190.254C202.203 190.91 201.949 191.523 201.691 192.094H200.238C200.402 191.469 200.562 190.809 200.719 190.113C200.875 189.426 201.016 188.746 201.141 188.074C201.273 187.395 201.379 186.773 201.457 186.211H203.543ZM214.055 171.867H218.906C221.047 171.867 222.656 172.188 223.734 172.828C224.812 173.469 225.352 174.559 225.352 176.098C225.352 176.762 225.223 177.359 224.965 177.891C224.715 178.414 224.348 178.848 223.863 179.191C223.379 179.535 222.781 179.773 222.07 179.906V180.023C222.82 180.141 223.484 180.355 224.062 180.668C224.641 180.98 225.094 181.418 225.422 181.98C225.75 182.543 225.914 183.258 225.914 184.125C225.914 185.18 225.668 186.07 225.176 186.797C224.691 187.523 224.004 188.074 223.113 188.449C222.223 188.816 221.168 189 219.949 189H214.055V171.867ZM216.047 179.215H219.328C220.82 179.215 221.852 178.969 222.422 178.477C223 177.984 223.289 177.266 223.289 176.32C223.289 175.344 222.945 174.641 222.258 174.211C221.578 173.781 220.492 173.566 219 173.566H216.047V179.215ZM216.047 180.891V187.301H219.609C221.133 187.301 222.211 187.004 222.844 186.41C223.477 185.809 223.793 185 223.793 183.984C223.793 183.336 223.648 182.781 223.359 182.32C223.078 181.859 222.617 181.508 221.977 181.266C221.344 181.016 220.496 180.891 219.434 180.891H216.047ZM239.883 176.156V189H238.289L238.008 187.195H237.902C237.637 187.641 237.293 188.016 236.871 188.32C236.449 188.625 235.973 188.852 235.441 189C234.918 189.156 234.359 189.234 233.766 189.234C232.75 189.234 231.898 189.07 231.211 188.742C230.523 188.414 230.004 187.906 229.652 187.219C229.309 186.531 229.137 185.648 229.137 184.57V176.156H231.105V184.43C231.105 185.5 231.348 186.301 231.832 186.832C232.316 187.355 233.055 187.617 234.047 187.617C235 187.617 235.758 187.438 236.32 187.078C236.891 186.719 237.301 186.191 237.551 185.496C237.801 184.793 237.926 183.934 237.926 182.918V176.156H239.883ZM241.969 176.156H244.055L246.891 183.609C247.055 184.047 247.207 184.469 247.348 184.875C247.488 185.273 247.613 185.656 247.723 186.023C247.832 186.391 247.918 186.746 247.98 187.09H248.062C248.172 186.699 248.328 186.188 248.531 185.555C248.734 184.914 248.953 184.262 249.188 183.598L251.871 176.156H253.969L248.379 190.887C248.082 191.676 247.734 192.363 247.336 192.949C246.945 193.535 246.469 193.984 245.906 194.297C245.344 194.617 244.664 194.777 243.867 194.777C243.5 194.777 243.176 194.754 242.895 194.707C242.613 194.668 242.371 194.621 242.168 194.566V193.008C242.34 193.047 242.547 193.082 242.789 193.113C243.039 193.145 243.297 193.16 243.562 193.16C244.047 193.16 244.465 193.066 244.816 192.879C245.176 192.699 245.484 192.434 245.742 192.082C246 191.73 246.223 191.312 246.41 190.828L247.113 189.023L241.969 176.156ZM262.547 189V171.867H264.539V189H262.547ZM273.105 187.641C273.426 187.641 273.754 187.613 274.09 187.559C274.426 187.504 274.699 187.438 274.91 187.359V188.871C274.684 188.973 274.367 189.059 273.961 189.129C273.562 189.199 273.172 189.234 272.789 189.234C272.109 189.234 271.492 189.117 270.938 188.883C270.383 188.641 269.938 188.234 269.602 187.664C269.273 187.094 269.109 186.305 269.109 185.297V177.68H267.281V176.73L269.121 175.969L269.895 173.18H271.066V176.156H274.828V177.68H271.066V185.238C271.066 186.043 271.25 186.645 271.617 187.043C271.992 187.441 272.488 187.641 273.105 187.641ZM277.219 187.781C277.219 187.234 277.352 186.848 277.617 186.621C277.883 186.387 278.207 186.27 278.59 186.27C278.988 186.27 279.324 186.387 279.598 186.621C279.871 186.848 280.008 187.234 280.008 187.781C280.008 188.32 279.871 188.715 279.598 188.965C279.324 189.207 278.988 189.328 278.59 189.328C278.207 189.328 277.883 189.207 277.617 188.965C277.352 188.715 277.219 188.32 277.219 187.781Z" fill="#FFAF49"/>
<path d="M188.455 0.00292969V15.4789H156.807C156.425 15.4754 156.046 15.5338 155.692 15.6508C155.337 15.7678 155.015 15.9411 154.743 16.1606C154.522 16.3398 154.341 16.5498 154.209 16.7807C154.504 12.8605 156.32 9.11936 159.393 6.10177C162.465 3.08418 166.635 0.94759 171.295 0.00292969H188.455Z" fill="url(#paint0_linear_1137_30796)"/>
<path d="M171.873 39.0342C171.612 42.9741 169.815 46.742 166.746 49.7857C163.677 52.8293 159.497 54.9887 154.818 55.9472H138.446V40.4745H169.185C169.576 40.4787 169.965 40.4181 170.326 40.2964C170.672 40.1809 170.986 40.0097 171.25 39.7928C171.514 39.5746 171.726 39.3171 171.873 39.0342Z" fill="url(#paint1_linear_1137_30796)"/>
<path d="M191 38.1041C191.013 40.4909 190.431 42.8547 189.288 45.0507C189.055 45.4927 188.8 45.9283 188.523 46.3525C188.515 46.3703 188.507 46.3768 188.507 46.389C188.504 46.3981 188.499 46.4067 188.492 46.4141C186.141 50.0506 182.332 52.915 177.705 54.5265C175.015 55.4754 172.114 55.9583 169.185 55.9449H154.825L154.99 55.9085C159.63 54.926 163.766 52.761 166.802 49.7269C169.837 46.6927 171.613 42.9469 171.873 39.0319V39.0254C172.147 38.4411 172.153 37.7951 171.888 37.2078C171.881 37.1957 171.873 37.1771 171.865 37.1649C171.722 36.8826 171.513 36.626 171.249 36.4096C170.979 36.1883 170.657 36.0142 170.302 35.898C169.947 35.7818 169.567 35.7258 169.185 35.7335H156.807C156.192 35.7335 155.576 35.7157 154.967 35.6663C154.946 35.6663 154.923 35.6598 154.893 35.6598C152.619 35.5126 150.392 35.0562 148.301 34.3094C143.1 32.4777 138.959 29.0805 136.734 24.8206C136.441 24.2718 136.185 23.7101 135.968 23.1382C135.319 21.4259 134.992 19.6426 135 17.8498C134.987 15.4576 135.577 13.0889 136.734 10.8919C138.972 6.64498 143.11 3.25914 148.301 1.42819C149.817 0.885482 151.408 0.497714 153.039 0.273666C153.099 0.260712 153.144 0.25504 153.173 0.248563C153.188 0.245457 153.203 0.243556 153.219 0.242893C154.405 0.0806643 155.605 -0.000580607 156.807 3.1231e-06H171.295C166.635 0.944665 162.465 3.08125 159.392 6.09885C156.319 9.11644 154.504 12.8575 154.209 16.7778C154.178 16.8233 154.15 16.8707 154.127 16.9195C153.979 17.2133 153.905 17.5287 153.91 17.8465C153.905 18.1794 153.982 18.5095 154.134 18.8181C154.15 18.8524 154.17 18.8852 154.195 18.916C154.324 19.162 154.51 19.3852 154.743 19.5734C155.014 19.7942 155.336 19.9681 155.691 20.0852C156.045 20.2024 156.425 20.2601 156.807 20.2551H169.185C172.108 20.2424 175.004 20.7168 177.696 21.6493C182.929 23.4494 187.093 26.8554 189.293 31.1373C189.583 31.6923 189.837 32.2598 190.052 32.8375C190.687 34.5444 191.007 36.3197 191 38.1041Z" fill="url(#paint2_linear_1137_30796)"/>
<g style="mix-blend-mode:multiply" opacity="0.16">
<g style="mix-blend-mode:multiply">
<path d="M171.873 39.0342C171.612 42.9741 169.815 46.742 166.746 49.7857C163.676 52.8293 159.496 54.9887 154.818 55.9472H150.254C154.084 54.4726 157.465 52.3194 160.152 49.6438C162.839 46.9681 164.765 43.8369 165.791 40.4769H169.183C169.574 40.4811 169.962 40.4205 170.324 40.2988C170.67 40.1834 170.984 40.0121 171.247 39.7952C171.513 39.5765 171.725 39.3181 171.873 39.0342Z" fill="black"/>
</g>
</g>
<g style="mix-blend-mode:multiply" opacity="0.16">
<g style="mix-blend-mode:multiply">
<path d="M175.409 0.00292969C171.182 2.57591 162.602 8.51449 160.44 15.4789H156.807C156.425 15.4754 156.046 15.5338 155.692 15.6508C155.337 15.7678 155.015 15.9411 154.743 16.1606C154.522 16.3398 154.341 16.5498 154.209 16.7807C154.504 12.8605 156.32 9.11936 159.393 6.10177C162.465 3.08418 166.635 0.94759 171.295 0.00292969H175.409Z" fill="black"/>
</g>
</g>
<g style="mix-blend-mode:multiply" opacity="0.25">
<g style="mix-blend-mode:multiply">
<path d="M188.455 4.6333V15.4823H162.024C164.223 15.3041 166.43 15.1819 168.63 15.0953C170.83 15.0086 173.037 14.9333 175.236 14.905C177.442 14.8499 179.642 14.8564 181.849 14.8378C183.828 14.8564 185.79 14.8564 187.765 14.8929C187.787 14.1869 187.803 13.4801 187.839 12.7684C187.877 11.8649 187.914 10.9621 187.983 10.0594C188.092 8.2507 188.237 6.43876 188.455 4.6333Z" fill="black"/>
</g>
</g>
<g style="mix-blend-mode:screen" opacity="0.7">
<g style="mix-blend-mode:screen">
<path d="M191 38.1041C191.013 40.4908 190.431 42.8546 189.288 45.0507C189.055 45.4927 188.8 45.9283 188.523 46.3525C188.598 46.1866 188.845 45.6578 189.216 44.8474C189.789 43.4692 190.164 42.0412 190.334 40.5921C190.441 39.6323 190.464 38.6673 190.402 37.7049C190.327 36.6405 190.146 35.5829 189.862 34.5426C189.715 34.0045 189.532 33.4734 189.314 32.9517C189.058 32.4116 188.803 31.8642 188.548 31.3178C187.975 30.2431 187.27 29.2186 186.446 28.2599C185.642 27.2883 184.713 26.3904 183.675 25.5816C182.674 24.7966 181.589 24.0877 180.432 23.4636C179.334 22.8804 178.182 22.3691 176.986 21.9343C175.909 21.555 174.797 21.2448 173.661 21.0064C171.932 20.6556 170.164 20.4478 168.383 20.3863C167.077 20.3053 166.334 20.2576 166.334 20.2576H169.179C172.102 20.2448 174.998 20.7191 177.69 21.6517C182.923 23.4518 187.087 26.8579 189.287 31.1396C189.578 31.6946 189.831 32.2623 190.046 32.8399C190.683 34.5458 191.005 36.3202 191 38.1041Z" fill="white"/>
</g>
</g>
<g style="mix-blend-mode:multiply" opacity="0.25">
<g style="mix-blend-mode:multiply">
<path d="M152.453 55.9447H138.446V44.2456C138.618 45.222 138.723 46.1887 138.836 47.1692C138.926 48.1456 139.009 49.122 139.062 50.0919C139.137 51.0683 139.152 52.0455 139.196 53.0219L139.227 55.3059C140.135 55.318 141.043 55.318 141.951 55.3366C143.115 55.3739 144.279 55.386 145.45 55.4475C147.784 55.5398 150.119 55.6807 152.453 55.9447Z" fill="black"/>
</g>
</g>
<g style="mix-blend-mode:screen" opacity="0.7">
<g style="mix-blend-mode:screen">
<path d="M154.893 35.6596C152.619 35.5124 150.392 35.0559 148.301 34.3092C143.1 32.4775 138.959 29.0803 136.734 24.8204C136.441 24.2716 136.185 23.7099 135.968 23.138C135.319 21.4257 134.992 19.6424 135 17.8496C134.987 15.4574 135.577 13.0887 136.734 10.8917C138.972 6.64475 143.11 3.25891 148.301 1.42796C149.817 0.88525 151.408 0.497486 153.039 0.273438C152.22 0.434411 151.413 0.631159 150.621 0.86284C145.246 2.43355 140.798 5.61353 138.176 9.76142C136.442 12.4852 135.625 15.5376 135.811 18.6049C135.869 20.1462 136.195 21.6728 136.779 23.1388C136.952 23.5129 137.117 23.8877 137.282 24.2561L137.402 24.5322L137.433 24.6002C137.44 24.6117 137.445 24.624 137.447 24.6366L137.523 24.7718L137.808 25.294C138.187 25.97 138.621 26.6246 139.106 27.2533C140.027 28.4504 141.112 29.5569 142.342 30.5509C143.458 31.4406 144.68 32.2369 145.99 32.928C147.108 33.5083 148.28 34.0154 149.496 34.4444C150.445 34.7745 151.423 35.0435 152.423 35.2492C153.237 35.4199 154.062 35.5569 154.893 35.6596Z" fill="white"/>
</g>
</g>
<g style="mix-blend-mode:screen" opacity="0.7">
<g style="mix-blend-mode:screen">
<path d="M171.295 0.00292969C166.635 0.94759 162.465 3.08418 159.392 6.10177C156.319 9.11936 154.503 12.8605 154.209 16.7807C154.177 16.8262 154.15 16.8736 154.127 16.9224L154.187 16.7686C154.165 16.2828 154.165 15.7922 154.165 15.3008C154.209 14.8101 154.276 14.3187 154.337 13.8208C154.436 13.335 154.569 12.8492 154.682 12.3634C154.833 11.8777 155.035 11.4113 155.208 10.9264C155.406 10.4535 155.651 9.99853 155.89 9.53219C156.146 9.07799 156.447 8.64161 156.717 8.19307C157.031 7.7575 157.377 7.3462 157.706 6.91629C158.067 6.51148 158.442 6.11153 158.818 5.71805C159.222 5.33753 159.651 4.97562 160.064 4.60644C160.514 4.26316 160.954 3.91907 161.422 3.58712L162.886 2.67226C163.397 2.39617 163.914 2.1379 164.44 1.87396C164.988 1.65293 165.521 1.41329 166.068 1.19793L167.766 0.657906C168.359 0.516222 168.936 0.375348 169.522 0.253095C170.108 0.15594 170.702 0.0766054 171.295 0.00292969Z" fill="white"/>
</g>
</g>
<g style="mix-blend-mode:screen" opacity="0.7">
<g style="mix-blend-mode:screen">
<path d="M172.009 39.0257C172.016 39.5293 172.016 40.0207 172.001 40.5178C171.963 41.0157 171.888 41.5072 171.821 42.0043C171.716 42.4955 171.596 42.9869 171.461 43.4786C171.31 43.9644 171.115 44.4429 170.942 44.9213C170.744 45.4006 170.485 45.8548 170.249 46.322C169.995 46.7827 169.702 47.2247 169.416 47.6733C169.108 48.1088 168.764 48.5266 168.433 48.9565C168.073 49.3678 167.697 49.7661 167.322 50.1661C166.917 50.5474 166.489 50.9158 166.076 51.2898C165.626 51.6404 165.185 51.9845 164.717 52.3221L163.253 53.2435C162.742 53.5198 162.224 53.7896 161.699 54.0531L160.07 54.7469L158.366 55.3056L156.616 55.7233C156.166 55.797 155.726 55.8707 155.281 55.9322L155.379 55.9444L154.861 55.9937C154.854 56.0002 154.838 56.0002 154.831 56.0002L154.823 55.9444L154.816 55.8893L154.989 55.9079C159.628 54.9255 163.765 52.7604 166.8 49.7262C169.835 46.6921 171.611 42.9464 171.871 39.0313V39.0249C172.017 38.7326 172.088 38.4191 172.081 38.1035C172.135 38.4117 172.111 38.7257 172.009 39.0257Z" fill="white"/>
</g>
</g>
<defs>
<linearGradient id="paint0_linear_1137_30796" x1="188.455" y1="8.39184" x2="155.614" y2="8.39184" gradientUnits="userSpaceOnUse">
<stop stop-color="#EE0979"/>
<stop offset="0.322" stop-color="#F32555"/>
<stop offset="1" stop-color="#FF6A00"/>
</linearGradient>
<linearGradient id="paint1_linear_1137_30796" x1="137.143" y1="47.4907" x2="168.697" y2="47.4907" gradientUnits="userSpaceOnUse">
<stop stop-color="#EE0979"/>
<stop offset="0.322" stop-color="#F32555"/>
<stop offset="1" stop-color="#FF6A00"/>
</linearGradient>
<linearGradient id="paint2_linear_1137_30796" x1="163" y1="-0.447562" x2="163" y2="57.4557" gradientUnits="userSpaceOnUse">
<stop stop-color="#FCC400"/>
<stop offset="0.162" stop-color="#FBC000"/>
<stop offset="0.307" stop-color="#FBB500"/>
<stop offset="0.446" stop-color="#FBA300"/>
<stop offset="0.581" stop-color="#FA8900"/>
<stop offset="0.712" stop-color="#FA6800"/>
<stop offset="0.842" stop-color="#F93F00"/>
<stop offset="0.967" stop-color="#F81000"/>
<stop offset="1" stop-color="#F80300"/>
</linearGradient>
<clipPath id="clip0_1137_30796">
<rect width="65" height="65" fill="white" transform="translate(261 86)"/>
</clipPath>
</defs>
</svg>
